<?xml version="1.0" standalone="no"?>
<!DOCTYPE svg PUBLIC "-//W3C//DTD SVG 20010904//EN"
 "http://www.w3.org/TR/2001/REC-SVG-20010904/DTD/svg10.dtd">
<svg version="1.0" xmlns="http://www.w3.org/2000/svg"
 width="700.000000pt" height="700.000000pt" viewBox="0 0 700.000000 700.000000"
 preserveAspectRatio="xMidYMid meet">
<metadata>
Created by potrace 1.11, written by Peter Selinger 2001-2013
</metadata>
<g transform="translate(0.000000,700.000000) scale(0.100000,-0.100000)"
fill="#000000" stroke="none">
<path d="M4555 6186 c-321 -75 -559 -293 -649 -596 -26 -84 -31 -126 -31 -240
0 -126 7 -174 40 -270 102 -301 345 -509 665 -570 55 -11 203 -14 250 -6 14 3
41 7 60 10 92 14 246 82 340 151 56 41 156 145 197 205 119 175 169 396 137
603 -52 329 -267 582 -586 688 -81 27 -110 32 -228 35 -93 3 -154 -1 -195 -10z
m-1 -190 c-3 -8 3 -17 14 -20 29 -10 34 -31 20 -98 l-12 -60 39 -34 c48 -41
58 -42 80 -8 9 14 24 33 34 42 10 9 41 39 69 65 39 36 52 56 52 77 0 38 22 54
64 46 41 -8 180 -77 216 -107 27 -23 26 -25 -39 -61 -17 -10 -34 -25 -38 -35
-4 -10 -13 -24 -20 -32 -21 -21 -10 -36 30 -37 28 -2 41 4 61 27 29 32 56 30
56 -6 0 -30 -46 -59 -89 -56 -23 1 -41 -5 -57 -20 -18 -17 -24 -19 -28 -8 -2
8 -6 21 -9 29 -6 19 -57 25 -57 7 0 -8 -11 -20 -25 -27 -34 -18 -32 -26 10
-41 42 -16 50 -55 12 -64 -36 -9 -51 -41 -32 -68 23 -33 19 -49 -30 -95 -25
-24 -45 -49 -45 -57 0 -25 40 -119 60 -144 15 -18 32 -24 69 -26 71 -3 97 -31
105 -115 4 -36 10 -87 13 -115 7 -69 23 -99 54 -103 21 -2 33 5 56 35 45 59
80 131 102 212 11 41 28 82 38 93 23 26 25 46 3 53 -29 9 -80 73 -80 99 0 32
28 56 41 35 5 -8 9 -22 9 -31 0 -25 56 -61 84 -54 22 5 23 4 15 -42 -12 -81
-29 -134 -66 -207 -142 -285 -465 -435 -772 -360 l-71 17 0 38 c0 34 5 42 45
71 25 18 45 38 45 45 0 8 12 21 26 30 35 24 84 112 84 153 0 19 -9 56 -21 81
-18 40 -31 52 -87 81 -36 19 -76 40 -89 47 -13 7 -50 14 -82 15 -59 2 -60 2
-116 64 -57 64 -62 83 -21 83 53 0 86 13 92 35 3 13 26 37 50 55 25 18 43 38
42 47 -2 9 5 17 17 19 99 15 137 38 128 77 -8 30 -93 117 -115 117 -11 0 -29
-7 -41 -15 -47 -30 -97 -21 -97 19 0 8 19 31 42 50 l41 36 36 -21 c29 -17 38
-19 57 -8 l23 12 -22 31 c-39 56 -46 58 -167 41 l-45 -6 30 21 c44 31 84 51
140 71 61 22 76 23 69 5z m701 -418 c31 -14 31 -22 0 -56 -14 -15 -25 -39 -25
-54 0 -26 -1 -27 -69 -27 -56 0 -72 4 -86 19 -10 11 -26 20 -35 20 -19 0 -33
14 -43 43 -5 13 2 23 24 36 17 11 36 18 42 17 59 -11 75 -19 70 -32 -3 -9 1
-14 12 -14 28 0 55 20 55 40 0 23 18 25 55 8z m-1119 -199 c27 -28 75 -68 107
-90 86 -57 117 -105 88 -135 -18 -17 -21 -67 -6 -83 59 -64 78 -94 77 -124 0
-17 4 -37 10 -45 11 -13 48 -174 42 -181 -2 -2 -34 14 -71 35 -65 36 -233 191
-233 214 0 6 -11 27 -24 48 -27 41 -71 164 -80 227 -14 87 -7 204 16 284 l13
44 6 -72 c5 -69 7 -73 55 -122z"/>
<path d="M2137 6169 c-115 -17 -212 -61 -254 -115 -25 -33 -27 -44 -28 -120
l0 -84 -90 -1 c-217 -2 -361 -54 -410 -148 -12 -24 -14 -104 -15 -488 0 -252
3 -473 6 -491 4 -18 21 -47 38 -64 34 -34 130 -82 186 -92 19 -3 46 -8 60 -11
48 -11 245 -7 310 5 72 13 149 43 195 74 26 18 42 20 130 18 64 -2 105 -8 115
-17 46 -40 131 -68 260 -84 172 -22 378 14 473 81 59 42 64 75 63 354 -1 228
-3 253 -20 280 -26 39 -41 51 -111 83 -79 37 -168 54 -282 54 l-53 1 0 298 c0
202 -4 306 -11 321 -49 96 -177 146 -384 151 -66 2 -146 0 -178 -5z m302 -151
c66 -16 121 -40 116 -48 -6 -10 -86 -37 -135 -45 -135 -24 -410 8 -410 46 0
42 313 77 429 47z m-189 -222 c104 -2 229 12 283 33 15 6 28 9 28 8 1 -1 3
-21 4 -44 2 -38 -1 -43 -30 -57 -57 -27 -163 -44 -270 -42 -98 1 -106 2 -121
25 -9 13 -46 37 -80 52 -45 20 -64 35 -64 47 0 18 3 18 73 0 42 -11 115 -20
177 -22z m-350 -100 c45 -7 114 -28 133 -41 17 -12 14 -15 -35 -33 -29 -11
-75 -23 -103 -27 -61 -8 -241 -8 -255 0 -5 3 -22 7 -37 9 -16 2 -48 12 -72 22
-43 17 -43 17 -20 30 75 42 251 60 389 40z m667 -127 c0 -47 -18 -60 -115 -83
-65 -15 -271 -22 -273 -9 -1 4 -2 28 -3 53 l-1 45 130 2 c81 1 149 7 180 16
79 23 82 22 82 -24z m-1010 -78 c67 -17 116 -22 213 -22 112 0 170 8 271 37
22 6 18 -75 -5 -92 -63 -45 -320 -62 -446 -29 -96 25 -100 28 -100 81 0 36 3
45 14 41 8 -3 32 -10 53 -16z m1010 -116 c0 -8 -6 -15 -14 -15 -30 0 -137 -52
-172 -83 -37 -33 -39 -34 -116 -30 -44 2 -81 6 -84 9 -3 2 -6 24 -6 48 l-2 43
141 6 c83 3 160 11 186 20 59 20 67 20 67 2z m-932 -122 c126 -16 309 -4 390
27 27 10 27 10 27 -42 1 -37 -14 -52 -63 -67 -73 -22 -81 -23 -203 -26 -122
-3 -209 10 -266 40 -26 14 -30 21 -30 59 l0 44 47 -14 c26 -8 70 -17 98 -21z
m1245 -6 c8 -2 31 -7 50 -11 51 -11 90 -27 90 -37 0 -13 -42 -29 -114 -44
-117 -26 -339 -10 -413 29 l-28 14 48 21 c26 11 76 25 110 29 56 8 219 7 257
-1z m-540 -129 c3 -3 4 -27 2 -53 l-4 -46 -73 2 c-40 1 -78 4 -83 8 -7 5 -10
87 -3 98 3 5 157 -3 161 -9z m-740 -84 c76 -17 319 -11 385 10 28 9 53 16 58
16 4 0 7 -20 7 -43 0 -41 -2 -45 -37 -60 -125 -53 -386 -52 -493 3 -28 14 -36
24 -34 42 1 13 3 31 3 42 1 15 6 17 29 11 15 -5 52 -14 82 -21z m965 3 c113
-26 301 -19 438 18 27 7 27 6 27 -38 0 -43 -2 -46 -37 -60 -21 -8 -51 -17 -68
-21 -16 -3 -41 -9 -55 -12 -45 -10 -204 -6 -270 6 -35 6 -80 20 -99 30 -31 15
-35 22 -35 59 -1 37 1 41 19 37 11 -3 47 -11 80 -19z m-228 -142 c10 -3 10
-81 0 -92 -5 -4 -56 -6 -118 -4 l-47 1 1 48 c0 26 1 49 3 52 3 6 141 2 161 -5z
m-792 -70 c120 -37 330 -37 452 0 50 15 64 9 58 -24 -2 -9 -4 -24 -4 -34 -2
-39 -157 -75 -306 -71 -95 3 -164 15 -221 39 -32 13 -34 17 -34 59 0 26 1 46
3 46 1 0 25 -7 52 -15z m956 5 c26 -15 192 -36 261 -34 89 3 158 12 213 29 28
8 51 15 53 15 1 0 2 -20 2 -44 0 -40 -3 -45 -33 -59 -113 -54 -377 -56 -486
-4 -44 21 -46 24 -47 65 0 44 5 49 37 32z"/>
<path d="M1336 4283 c-55 -14 -73 -92 -32 -140 l24 -28 394 -2 c216 0 401 -2
410 -2 16 -1 17 -30 17 -383 l1 -383 30 -27 30 -28 1280 0 1280 0 31 28 31 28
1 375 c0 205 1 379 3 384 3 6 139 10 384 9 415 -1 429 1 448 55 15 43 3 81
-32 102 -30 18 -65 19 -949 19 -999 0 -959 2 -985 -56 -16 -34 0 -89 31 -106
16 -9 136 -13 462 -14 242 -1 445 -3 451 -3 7 -1 10 -102 10 -321 0 -316 0
-320 -20 -321 -93 -4 -2306 -3 -2307 1 -1 3 -2 148 -3 323 -1 210 2 317 9 318
5 0 201 2 435 3 322 1 430 4 447 14 48 27 57 85 19 129 l-24 28 -929 1 c-510
1 -937 0 -947 -3z"/>
<path d="M3415 3014 c-25 -27 -25 -29 -25 -220 l0 -194 -1014 -2 c-978 -3
-1015 -4 -1035 -22 -26 -23 -37 -77 -21 -106 25 -47 36 -47 680 -46 333 1 613
0 622 -2 16 -4 17 -60 17 -795 0 -910 -10 -827 99 -828 113 -2 103 -87 102
824 -1 434 1 792 4 795 4 3 634 6 1401 6 l1395 1 25 26 c36 35 36 82 1 117
l-26 27 -1038 5 -1037 5 1 170 c0 94 -4 184 -8 202 -17 65 -98 86 -143 37z"/>
<path d="M1343 1916 c-10 -5 -21 -14 -25 -20 -4 -6 -8 -248 -8 -538 0 -582 -3
-557 63 -559 138 -4 137 -6 137 211 l0 176 136 1 c161 0 222 13 295 62 96 64
150 175 151 309 1 120 -37 210 -119 281 -83 74 -125 83 -385 85 -132 1 -235
-2 -245 -8z m437 -182 c46 -20 70 -42 88 -84 46 -106 5 -236 -86 -271 -15 -6
-82 -12 -149 -13 l-123 -3 0 194 0 194 118 -2 c76 -1 129 -6 152 -15z"/>
<path d="M3517 1917 c-14 -4 -29 -18 -33 -30 -9 -28 -9 -1026 0 -1055 9 -26
33 -34 103 -33 101 1 95 -24 91 422 -1 213 -2 387 -1 386 1 -1 18 -33 39 -72
32 -59 146 -237 417 -647 56 -84 69 -92 159 -90 61 0 86 9 93 31 8 26 9 1032
1 1057 -8 27 -40 40 -91 39 -65 -2 -94 -13 -100 -38 -4 -13 -5 -189 -3 -390 2
-202 -1 -367 -5 -367 -4 0 -11 8 -14 18 -13 33 -78 139 -198 322 -66 102 -158
242 -204 312 -50 76 -91 130 -104 134 -33 11 -120 11 -150 1z"/>
<path d="M5061 1916 c-11 -5 -23 -17 -27 -28 -3 -10 -6 -251 -5 -535 0 -499 0
-517 19 -536 19 -18 36 -19 318 -20 165 0 309 3 321 7 13 4 25 17 28 29 19 80
7 123 -36 134 -16 5 -124 8 -239 7 l-210 -1 0 152 0 151 172 0 c160 1 172 2
188 21 24 30 25 104 2 133 -18 22 -23 23 -190 23 l-172 0 0 149 0 149 178 -1
c255 -2 250 -2 271 19 15 15 19 32 17 70 -3 88 7 85 -325 86 -159 0 -299 -4
-310 -9z"/>
</g>
</svg>
