<svg viewBox="0 0 512 512" xmlns="http://www.w3.org/2000/svg"><path d="m0 0v512h512v-512zm124.617188 72.40625 77.59375 77.59375h-42.421876l-58.402343-58.402344c7.308593-6.894531 15.0625-13.3125 23.230469-19.191406zm101.382812 47.59375c0-16.542969 13.457031-30 30-30s30 13.457031 30 30c0 15.035156-12.476562 30-30 30-17.46875 0-30-14.929688-30-30zm-145.046875-6.414062 36.410156 36.414062h-60.632812c6.914062-12.9375 15.039062-25.125 24.222656-36.414062zm-50.320313 126.414062h150.367188v28.363281l-113.144531 113.148438c-23.902344-35.679688-37.855469-78.5-37.855469-124.511719 0-5.71875.21875-11.386719.632812-17zm150.367188 70.789062v42.421876l-73.371094 73.367187c-7.558594-6.5625-14.671875-13.621094-21.296875-21.117187zm0 84.847657v73.609375c-17.492188-6.140625-34-14.371094-49.226562-24.382813zm150 0 49.226562 49.226562c-15.226562 10.011719-31.734374 18.242188-49.226562 24.382813zm73.371094 30.941406-73.371094-73.367187v-42.421876l94.667969 94.671876c-6.625 7.496093-13.738281 14.554687-21.296875 21.117187zm39.773437-45.066406-113.144531-113.148438v-28.363281h150.367188c.417968 5.613281.632812 11.28125.632812 17 0 46.011719-13.953125 88.832031-37.855469 124.511719zm-143.144531-171.511719v267.515625c-9.785156 1.976563-19.804688 3.308594-30 3.976563v-149.492188h-30v149.492188c-10.195312-.667969-20.214844-2-30-3.976563v-267.515625h-176.117188c2.164063-10.269531 5.015626-20.289062 8.511719-30h425.210938c3.496093 9.710938 6.347656 19.730469 8.507812 30zm93.636719-60 36.410156-36.414062c9.183594 11.289062 17.308594 23.476562 24.222656 36.414062zm-42.425781 0h-42.421876l77.59375-77.59375c8.167969 5.878906 15.921876 12.296875 23.230469 19.191406zm9.003906-93.847656-47.496094 47.496094c-7.140625-25.160157-30.304688-43.648438-57.71875-43.648438s-50.578125 18.488281-57.71875 43.648438l-47.496094-47.496094c31.445313-16.683594 67.246094-26.152344 105.214844-26.152344s73.769531 9.46875 105.214844 26.152344zm-331.214844-26.164063h106.34375c-43.695312 23.457031-81.75 60.625-106.34375 106.6875zm0 452.011719v-105.328125c23.933594 44.667969 60.820312 81.445313 105.636719 105.328125zm452 0h-105.636719c44.816407-23.882812 81.703125-60.660156 105.636719-105.328125zm0-452v106.675781c-23.398438-43.828125-60.425781-82.023437-106.34375-106.675781zm0 0"/></svg>
